# xmcd CD database file
#
# Track frame offsets:
#	150
#	14399
#	27567
#	44400
#	59171
#	70007
#	88159
#	106365
#	124978
#	140055
#	152937
#	166383
#	178074
#	189665
#	201133
#	224999
#
# Disc length: 3345 seconds
#
# Revision: 1
# Processed by: cddbd v1.5.1PL2 Copyright (c) Steve Scherf et al.
# Submitted via: CDex 1.51
#
DISCID=030d0f10
DTITLE=Boxcar Preachers - Auto-Body Experience
DYEAR=2005
DGENRE=Country
TTITLE0=Model T
TTITLE1=Thirsting for the fire
TTITLE2=EarthQuaker
TTITLE3=Atomic Power
TTITLE4=Camping Beer
TTITLE5=Murky Water
TTITLE6=Hole In The Ground
TTITLE7=Get Down On Your Knees And Pray
TTITLE8=Venus In Furs
TTITLE9=Ain't Got Money
TTITLE10=Folsom Prison Blue
TTITLE11=Cam't Keep From Crying Sometimes
TTITLE12=Badly Bent
TTITLE13=Don't Kneel At My Grave Site And Cry
TTITLE14=Ain't No Grave Gonna Kepp My Body Down
TTITLE15=What Are They Doing In Heaven Today
EXTD=YEAR: 2005
EXTT0=
EXTT1=
EXTT2=
EXTT3=
EXTT4=
EXTT5=
EXTT6=
EXTT7=
EXTT8=
EXTT9=
EXTT10=
EXTT11=
EXTT12=
EXTT13=
EXTT14=
EXTT15=
PLAYORDER=
